<svg id="visual" viewBox="0 0 900 600" width="900" height="600" xmlns="http://www.w3.org/2000/svg" xmlns:xlink="http://www.w3.org/1999/xlink" version="1.1"><rect x="0" y="0" width="900" height="600" fill="#e7ecff"></rect><defs><linearGradient id="grad1_0" x1="33.3%" y1="100%" x2="100%" y2="0%"><stop offset="20%" stop-color="#e7ecff" stop-opacity="1"></stop><stop offset="80%" stop-color="#e7ecff" stop-opacity="1"></stop></linearGradient></defs><defs><linearGradient id="grad2_0" x1="0%" y1="100%" x2="66.7%" y2="0%"><stop offset="20%" stop-color="#e7ecff" stop-opacity="1"></stop><stop offset="80%" stop-color="#e7ecff" stop-opacity="1"></stop></linearGradient></defs><g transform="translate(900, 600)"><path d="M-540.8 0C-527.1 -68 -513.3 -136.1 -489.7 -202.8C-466 -269.6 -432.6 -335.1 -380.4 -380.4C-328.3 -425.8 -257.5 -450.9 -191 -461C-124.4 -471.1 -62.2 -466 0 -461L0 0Z" fill="#fbfaff"></path></g><g transform="translate(0, 0)"><path d="M535 0C537.5 79.3 539.9 158.7 499.7 207C459.4 255.3 376.5 272.5 324.6 324.6C272.6 376.7 251.7 463.6 202.8 489.7C153.9 515.7 76.9 480.9 0 446L0 0Z" fill="#fbfaff"></path></g></svg>